<svg xmlns="http://www.w3.org/2000/svg" version="1.1" xlink="http://www.w3.org/1999/xlink" xmlns:svgjs="http://svgjs.com/svgjs" width="100%" height="100%" preserveAspectRatio="xMidYMid meet" viewBox="0 3.603428666565378e-10 245.42462158203125 147.00003051757812" overflow="visible"><defs id="SvgjsDefs28752"></defs><g id="SvgjsG28753" transform="scale(0.5159664471220821)" opacity="1"><g id="SvgjsG28754" class="h6wSMxhyq" transform="translate(178.73996122135762, 0.00001008975015990568) scale(1.5665573827003292)" light-content="false" non-strokable="false" fill="#ff1434"><path d="M63.396 66.416a34.983 34.983 0 0 1-11.31 8.056 34.993 34.993 0 0 1-14.272 3.046c-10.753-.003-21.097-4.979-27.793-13.65a5.306 5.306 0 0 0 1.814-3.98c0-.713-.146-1.438-.453-2.126a5.265 5.265 0 0 0-4.822-3.121c-.73 0-1.47.152-2.171.464a5.3 5.3 0 0 0-3.156 4.841c0 .714.147 1.44.455 2.131a5.269 5.269 0 0 0 4.819 3.117c.362 0 .727-.036 1.09-.113 7.191 9.586 18.481 15.095 30.217 15.093 5.135 0 10.36-1.052 15.353-3.274a37.658 37.658 0 0 0 12.456-8.982 5.059 5.059 0 0 1-2.227-1.502zM4.112 60.994a2.562 2.562 0 0 1-.225-1.05 2.643 2.643 0 0 1 1.581-2.414 2.669 2.669 0 0 1 1.093-.237 2.617 2.617 0 0 1 2.397 1.545c.154.343.223.695.223 1.049 0 1-.587 1.975-1.587 2.42a2.647 2.647 0 0 1-1.086.232 2.612 2.612 0 0 1-2.395-1.543M2.55 51.719a6.095 6.095 0 0 1 1.265-.403 34.87 34.87 0 0 1-1.16-8.914c.002-13.455 7.768-26.294 20.853-32.116a34.953 34.953 0 0 1 9.43-2.678 5.265 5.265 0 0 0 4.729 2.945 5.325 5.325 0 0 0 5.325-5.308c0-.709-.145-1.434-.451-2.125A5.272 5.272 0 0 0 37.72 0c-.729 0-1.469.153-2.17.465a5.286 5.286 0 0 0-3.136 4.538 37.526 37.526 0 0 0-9.982 2.858C8.358 14.124-.002 27.933 0 42.401c0 3.335.453 6.706 1.374 10.028a6.029 6.029 0 0 1 1.176-.71zM35.272 6.355a2.541 2.541 0 0 1-.227-1.052 2.644 2.644 0 0 1 1.58-2.412 2.652 2.652 0 0 1 1.094-.236 2.616 2.616 0 0 1 2.398 1.544c.151.34.22.693.22 1.046a2.666 2.666 0 0 1-2.67 2.653c-1.015-.002-1.971-.579-2.396-1.541M73.047 55.93a37.757 37.757 0 0 0 2.539-13.567 37.667 37.667 0 0 0-3.274-15.349C67.331 15.833 57.59 8.277 46.544 5.637a5.014 5.014 0 0 1-.448 2.623c10.202 2.492 19.188 9.492 23.79 19.832a34.995 34.995 0 0 1 3.048 14.271 35.11 35.11 0 0 1-2.364 12.611 5.447 5.447 0 0 0-.6-.042 5.32 5.32 0 0 0-2.169.465 5.29 5.29 0 0 0-3.158 4.838c0 .716.148 1.444.455 2.135h.001a5.27 5.27 0 0 0 4.819 3.113 5.32 5.32 0 0 0 2.167-.461 5.32 5.32 0 0 0 3.159-4.846c0-.709-.144-1.436-.45-2.125a5.23 5.23 0 0 0-1.747-2.121zm-5.524 5.356a2.54 2.54 0 0 1-.228-1.052 2.638 2.638 0 0 1 1.581-2.412 2.674 2.674 0 0 1 1.093-.238c1.016.004 1.969.575 2.398 1.546.152.342.222.693.222 1.046a2.66 2.66 0 0 1-2.672 2.651c-1.014-.002-1.971-.58-2.395-1.539"></path></g><g id="SvgjsG28755" class="text" transform="translate(238.02373361660847, 212.33774691087547) scale(1)" light-content="false" fill="#ff1434"><path d="M-113.18 -19.62C-113.18 -16.68 -112.8 -13.96 -112.05 -11.46C-111.3 -8.96 -110.2 -6.8 -108.76 -4.98C-107.31 -3.16 -105.54 -1.72 -103.44 -0.67C-101.34 0.37 -98.94 0.9 -96.25 0.9C-94.75 0.9 -93.14 0.56 -91.42 -0.11C-89.69 -0.79 -87.93 -2 -86.14 -3.75L-85.09 -5.24L-84.86 -3.75C-84.51 -2.9 -84.14 -2.16 -83.74 -1.54C-83.34 -0.91 -82.84 -0.4 -82.24 0L-75.35 0C-75.85 -2.25 -76.16 -4.44 -76.29 -6.59C-76.41 -8.74 -76.47 -11.09 -76.47 -13.63L-76.47 -56.78L-85.54 -56.78L-85.54 -11.31C-88.63 -7.71 -91.68 -5.92 -94.68 -5.92C-96.07 -5.92 -97.32 -6.27 -98.42 -6.97C-99.52 -7.66 -100.44 -8.64 -101.19 -9.89C-101.94 -11.14 -102.5 -12.6 -102.88 -14.27C-103.25 -15.94 -103.44 -17.73 -103.44 -19.62C-103.44 -23.72 -102.65 -26.9 -101.08 -29.17C-99.51 -31.45 -97.27 -32.63 -94.38 -32.73C-92.93 -32.78 -91.72 -33.28 -90.74 -34.23C-89.77 -35.18 -88.93 -36.43 -88.23 -37.98C-89.98 -38.52 -91.47 -38.89 -92.69 -39.06C-93.91 -39.24 -95.12 -39.32 -96.32 -39.32C-98.52 -39.32 -100.63 -38.81 -102.65 -37.79C-104.67 -36.76 -106.47 -35.38 -108.05 -33.63C-109.62 -31.88 -110.87 -29.8 -111.79 -27.38C-112.71 -24.95 -113.18 -22.37 -113.18 -19.62Z M-54.45 -38.72L-63.59 -38.72L-63.59 -3.37C-63.59 -1.57 -63.7 0.02 -63.93 1.42C-64.15 2.82 -64.59 4.16 -65.24 5.43C-65.89 6.7 -66.8 7.99 -67.97 9.29C-69.15 10.59 -70.71 12.06 -72.65 13.71L-68.68 18.65C-65.84 16.7 -63.49 14.88 -61.64 13.18C-59.8 11.48 -58.35 9.77 -57.3 8.05C-56.25 6.33 -55.51 4.56 -55.09 2.73C-54.67 0.91 -54.45 -1.12 -54.45 -3.37ZM-64.49 -49.96C-64.49 -48.36 -63.98 -47.04 -62.95 -45.99C-61.93 -44.94 -60.62 -44.42 -59.02 -44.42C-57.42 -44.42 -56.09 -44.94 -55.02 -45.99C-53.94 -47.04 -53.4 -48.36 -53.4 -49.96C-53.4 -51.56 -53.94 -52.91 -55.02 -54C-56.09 -55.1 -57.42 -55.65 -59.02 -55.65C-60.62 -55.65 -61.93 -55.1 -62.95 -54C-63.98 -52.91 -64.49 -51.56 -64.49 -49.96Z M-19.47 0L-10.26 0L-10.26 -27.56C-10.26 -29.71 -10.56 -31.55 -11.16 -33.07C-11.76 -34.59 -12.56 -35.84 -13.56 -36.81C-14.56 -37.79 -15.7 -38.5 -17 -38.95C-18.3 -39.4 -19.62 -39.62 -20.97 -39.62C-22.57 -39.62 -24.28 -39.37 -26.1 -38.87C-27.93 -38.37 -30.11 -37.4 -32.66 -35.95C-32.01 -35 -31.33 -34.13 -30.63 -33.33C-29.94 -32.53 -29.09 -32.13 -28.09 -32.13C-27.24 -32.03 -26.44 -32.1 -25.69 -32.32C-24.94 -32.54 -24.17 -32.66 -23.37 -32.66C-21.97 -32.66 -20.97 -32.2 -20.37 -31.27C-19.77 -30.35 -19.47 -29.16 -19.47 -27.71ZM-45.02 -38.72C-44.22 -35.33 -43.82 -32.18 -43.82 -29.29L-43.82 0L-34.6 0L-34.6 -30.48C-34.6 -31.98 -34.79 -33.39 -35.17 -34.72C-35.54 -36.04 -36.33 -37.38 -37.53 -38.72Z M7.57 -19.4C7.57 -23.44 8.44 -26.69 10.19 -29.14C11.93 -31.58 14.26 -32.81 17.15 -32.81C20.05 -32.81 22.37 -31.58 24.12 -29.14C25.87 -26.69 26.74 -23.44 26.74 -19.4C26.74 -17.55 26.54 -15.8 26.14 -14.16C25.74 -12.51 25.14 -11.07 24.34 -9.85C23.54 -8.63 22.55 -7.66 21.35 -6.97C20.15 -6.27 18.75 -5.92 17.15 -5.92C15.65 -5.92 14.31 -6.24 13.11 -6.89C11.91 -7.54 10.9 -8.46 10.07 -9.66C9.25 -10.86 8.63 -12.28 8.2 -13.93C7.78 -15.58 7.57 -17.4 7.57 -19.4ZM-2.17 -19.4C-2.17 -16.15 -1.65 -13.27 -0.6 -10.75C0.45 -8.23 1.86 -6.1 3.63 -4.38C5.41 -2.66 7.45 -1.35 9.77 -0.45C12.1 0.45 14.56 0.9 17.15 0.9C19.6 0.9 21.98 0.45 24.31 -0.45C26.63 -1.35 28.69 -2.67 30.48 -4.42C32.28 -6.17 33.73 -8.29 34.83 -10.79C35.93 -13.28 36.48 -16.15 36.48 -19.4C36.48 -22.3 36.03 -24.98 35.13 -27.45C34.23 -29.92 32.93 -32.06 31.23 -33.86C29.54 -35.65 27.5 -37.06 25.13 -38.09C22.76 -39.11 20.1 -39.62 17.15 -39.62C14.96 -39.62 12.72 -39.22 10.45 -38.42C8.18 -37.63 6.1 -36.4 4.23 -34.75C2.36 -33.11 0.82 -31.01 -0.37 -28.46C-1.57 -25.92 -2.17 -22.89 -2.17 -19.4Z M61.34 0.9C62.64 0.9 64.15 0.7 65.88 0.3C67.6 -0.1 69.46 -0.77 71.46 -1.72L69.13 -7.86C65.94 -6.57 63.34 -5.92 61.34 -5.92C58.55 -5.92 56.25 -7.07 54.45 -9.36C52.66 -11.66 51.76 -15.01 51.76 -19.4C51.76 -23.74 52.67 -27.06 54.49 -29.36C56.31 -31.66 58.6 -32.81 61.34 -32.81C62.29 -32.81 63.35 -32.73 64.53 -32.58C65.7 -32.43 66.94 -32.18 68.24 -31.83L70.41 -37.98C68.91 -38.52 67.36 -38.94 65.76 -39.21C64.17 -39.49 62.69 -39.62 61.34 -39.62C58.8 -39.62 56.36 -39.2 54.04 -38.35C51.72 -37.5 49.67 -36.23 47.9 -34.53C46.13 -32.83 44.7 -30.72 43.63 -28.2C42.56 -25.68 42.02 -22.75 42.02 -19.4C42.02 -15.95 42.54 -12.96 43.59 -10.41C44.64 -7.86 46.05 -5.75 47.82 -4.08C49.6 -2.41 51.66 -1.16 54 -0.34C56.35 0.49 58.8 0.9 61.34 0.9Z M84.11 -19.4C84.11 -23.44 84.99 -26.69 86.74 -29.14C88.48 -31.58 90.81 -32.81 93.7 -32.81C96.6 -32.81 98.92 -31.58 100.67 -29.14C102.42 -26.69 103.29 -23.44 103.29 -19.4C103.29 -17.55 103.09 -15.8 102.69 -14.16C102.29 -12.51 101.69 -11.07 100.89 -9.85C100.09 -8.63 99.09 -7.66 97.9 -6.97C96.7 -6.27 95.3 -5.92 93.7 -5.92C92.2 -5.92 90.86 -6.24 89.66 -6.89C88.46 -7.54 87.45 -8.46 86.62 -9.66C85.8 -10.86 85.18 -12.28 84.75 -13.93C84.33 -15.58 84.11 -17.4 84.11 -19.4ZM74.38 -19.4C74.38 -16.15 74.9 -13.27 75.95 -10.75C77 -8.23 78.41 -6.1 80.18 -4.38C81.95 -2.66 84 -1.35 86.32 -0.45C88.65 0.45 91.11 0.9 93.7 0.9C96.15 0.9 98.53 0.45 100.85 -0.45C103.18 -1.35 105.24 -2.67 107.03 -4.42C108.83 -6.17 110.28 -8.29 111.38 -10.79C112.48 -13.28 113.03 -16.15 113.03 -19.4C113.03 -22.3 112.58 -24.98 111.68 -27.45C110.78 -29.92 109.48 -32.06 107.78 -33.86C106.09 -35.65 104.05 -37.06 101.68 -38.09C99.31 -39.11 96.65 -39.62 93.7 -39.62C91.5 -39.62 89.27 -39.22 87 -38.42C84.73 -37.63 82.65 -36.4 80.78 -34.75C78.91 -33.11 77.37 -31.01 76.17 -28.46C74.98 -25.92 74.38 -22.89 74.38 -19.4Z"></path></g><g id="SvgjsG28756" class="text" transform="translate(237.89, 277.4122478310402) scale(1)" light-content="false" fill="#292929"><path d="M-235.46 -21.78L-237.89 0L-235.19 0L-233.51 -17.47L-233.42 -18.73L-233.03 -17.47L-227.07 -0.3L-224.4 -0.3L-218.47 -17.44L-218.11 -18.73L-218.02 -17.44L-216.32 0L-213.59 0L-215.99 -21.78L-219.67 -21.78L-225.51 -4.28L-225.72 -3.36L-225.93 -4.28L-231.77 -21.78Z M-210.32 -7.76C-210.32 -6.46 -210.13 -5.31 -209.75 -4.3C-209.37 -3.29 -208.86 -2.45 -208.21 -1.77C-207.56 -1.09 -206.8 -0.57 -205.92 -0.22C-205.04 0.12 -204.1 0.3 -203.1 0.3C-202.14 0.3 -201.23 0.12 -200.35 -0.22C-199.47 -0.57 -198.7 -1.09 -198.04 -1.77C-197.38 -2.45 -196.86 -3.29 -196.47 -4.3C-196.08 -5.31 -195.88 -6.46 -195.88 -7.76C-195.88 -8.88 -196.04 -9.93 -196.36 -10.91C-196.68 -11.88 -197.15 -12.73 -197.77 -13.45C-198.39 -14.17 -199.15 -14.74 -200.05 -15.16C-200.95 -15.58 -201.96 -15.79 -203.1 -15.79C-203.98 -15.79 -204.86 -15.63 -205.72 -15.31C-206.59 -14.99 -207.37 -14.5 -208.05 -13.84C-208.73 -13.18 -209.27 -12.35 -209.69 -11.34C-210.11 -10.33 -210.32 -9.14 -210.32 -7.76ZM-207.36 -7.76C-207.36 -8.76 -207.24 -9.63 -207.01 -10.37C-206.78 -11.11 -206.47 -11.71 -206.08 -12.19C-205.69 -12.67 -205.24 -13.03 -204.74 -13.27C-204.23 -13.51 -203.68 -13.63 -203.1 -13.63C-202.54 -13.63 -202 -13.51 -201.48 -13.27C-200.97 -13.03 -200.51 -12.67 -200.12 -12.19C-199.73 -11.71 -199.42 -11.11 -199.19 -10.37C-198.96 -9.63 -198.85 -8.76 -198.85 -7.76C-198.85 -6.96 -198.93 -6.2 -199.1 -5.48C-199.27 -4.76 -199.53 -4.13 -199.88 -3.6C-200.23 -3.06 -200.68 -2.63 -201.22 -2.32C-201.75 -2.01 -202.38 -1.86 -203.1 -1.86C-203.78 -1.86 -204.39 -2 -204.92 -2.29C-205.44 -2.58 -205.89 -2.99 -206.25 -3.51C-206.61 -4.02 -206.88 -4.64 -207.07 -5.36C-207.26 -6.08 -207.36 -6.88 -207.36 -7.76Z M-188.27 0L-185.34 0L-179.52 -15.49L-182.4 -15.49L-186.5 -3.42L-186.71 -2.67L-186.95 -3.42L-191.09 -15.49L-194.08 -15.49Z M-176.71 0L-173.83 0L-173.83 -15.49L-176.71 -15.49ZM-177.07 -19.98C-177.07 -19.46 -176.9 -19.03 -176.56 -18.7C-176.22 -18.36 -175.79 -18.19 -175.27 -18.19C-174.75 -18.19 -174.32 -18.36 -173.98 -18.7C-173.64 -19.03 -173.47 -19.46 -173.47 -19.98C-173.47 -20.5 -173.64 -20.94 -173.98 -21.29C-174.32 -21.64 -174.75 -21.81 -175.27 -21.81C-175.79 -21.81 -176.22 -21.64 -176.56 -21.29C-176.9 -20.94 -177.07 -20.5 -177.07 -19.98Z M-167.18 -15.49L-169.34 -15.49C-169.18 -14.79 -169.06 -14.13 -168.99 -13.5C-168.92 -12.87 -168.89 -12.27 -168.89 -11.71L-168.89 0L-166.01 0L-166.01 -12.19C-166.01 -12.79 -166.09 -13.36 -166.24 -13.89C-166.39 -14.42 -166.7 -14.95 -167.18 -15.49ZM-159.06 -11.27L-159.06 0L-156.18 0L-156.18 -10.97C-156.18 -11.88 -156.3 -12.65 -156.54 -13.27C-156.78 -13.89 -157.11 -14.39 -157.52 -14.77C-157.93 -15.15 -158.4 -15.41 -158.94 -15.56C-159.48 -15.71 -160.05 -15.79 -160.65 -15.79C-161.19 -15.79 -161.82 -15.68 -162.54 -15.46C-163.26 -15.24 -164.14 -14.82 -165.2 -14.2C-164.78 -13.76 -164.32 -13.48 -163.82 -13.36C-163.33 -13.24 -162.79 -13.25 -162.21 -13.39C-161.95 -13.45 -161.73 -13.51 -161.55 -13.56C-161.37 -13.61 -161.16 -13.63 -160.92 -13.63C-160.3 -13.63 -159.83 -13.41 -159.53 -12.97C-159.22 -12.53 -159.06 -11.96 -159.06 -11.27Z M-151.96 -7.67C-151.96 -6.45 -151.79 -5.34 -151.45 -4.34C-151.11 -3.35 -150.65 -2.5 -150.06 -1.8C-149.47 -1.1 -148.78 -0.57 -147.99 -0.22C-147.2 0.12 -146.36 0.26 -145.46 0.18C-145 0.14 -144.51 0.03 -143.99 -0.15C-143.47 -0.33 -142.96 -0.59 -142.46 -0.93C-142.82 -1.39 -143.21 -1.7 -143.62 -1.86C-144.03 -2.02 -144.45 -2.08 -144.89 -2.04C-145.59 -1.96 -146.19 -2.05 -146.7 -2.31C-147.21 -2.57 -147.64 -2.95 -147.99 -3.46C-148.34 -3.97 -148.6 -4.59 -148.77 -5.32C-148.94 -6.05 -149.02 -6.83 -149.02 -7.67C-149.02 -9.61 -148.56 -11.09 -147.65 -12.1C-146.73 -13.12 -145.52 -13.63 -144.02 -13.63C-143.56 -13.63 -143.13 -13.61 -142.73 -13.56C-142.33 -13.51 -141.9 -13.42 -141.44 -13.3L-141.44 0.33C-141.44 1.19 -141.57 1.93 -141.82 2.56C-142.07 3.19 -142.4 3.71 -142.82 4.12C-143.24 4.53 -143.73 4.83 -144.29 5.03C-144.85 5.23 -145.44 5.33 -146.06 5.33C-146.7 5.33 -147.38 5.25 -148.1 5.08C-148.81 4.91 -149.6 4.61 -150.46 4.19L-151.24 6.23C-150.24 6.75 -149.28 7.09 -148.36 7.25C-147.45 7.41 -146.6 7.49 -145.82 7.49C-144.72 7.49 -143.74 7.31 -142.87 6.95C-142 6.59 -141.25 6.08 -140.63 5.42C-140.02 4.76 -139.54 3.97 -139.21 3.06C-138.88 2.14 -138.72 1.12 -138.72 0L-138.72 -14.83C-139.76 -15.17 -140.69 -15.41 -141.52 -15.56C-142.35 -15.71 -143.18 -15.79 -144.02 -15.79C-145.18 -15.79 -146.24 -15.59 -147.21 -15.2C-148.18 -14.82 -149.02 -14.27 -149.73 -13.56C-150.44 -12.85 -150.99 -11.99 -151.38 -11C-151.77 -10 -151.96 -8.89 -151.96 -7.67Z M-117.69 -10.1L-124.7 -21.78L-127.93 -21.78L-120.47 -9.26L-120.47 0L-117.69 0ZM-113.58 -21.78L-117.36 -15.04C-117.56 -14.68 -117.68 -14.33 -117.72 -13.98C-117.76 -13.63 -117.74 -13.29 -117.67 -12.97C-117.6 -12.65 -117.49 -12.35 -117.34 -12.06C-117.19 -11.77 -117.03 -11.5 -116.85 -11.27L-110.43 -21.78Z M-107.8 -7.76C-107.8 -6.46 -107.61 -5.31 -107.23 -4.3C-106.85 -3.29 -106.34 -2.45 -105.69 -1.77C-105.04 -1.09 -104.27 -0.57 -103.39 -0.22C-102.52 0.12 -101.58 0.3 -100.58 0.3C-99.62 0.3 -98.7 0.12 -97.82 -0.22C-96.94 -0.57 -96.17 -1.09 -95.51 -1.77C-94.86 -2.45 -94.33 -3.29 -93.94 -4.3C-93.55 -5.31 -93.36 -6.46 -93.36 -7.76C-93.36 -8.88 -93.52 -9.93 -93.84 -10.91C-94.16 -11.88 -94.63 -12.73 -95.24 -13.45C-95.86 -14.17 -96.62 -14.74 -97.52 -15.16C-98.42 -15.58 -99.44 -15.79 -100.58 -15.79C-101.46 -15.79 -102.33 -15.63 -103.2 -15.31C-104.07 -14.99 -104.84 -14.5 -105.52 -13.84C-106.2 -13.18 -106.75 -12.35 -107.17 -11.34C-107.59 -10.33 -107.8 -9.14 -107.8 -7.76ZM-104.83 -7.76C-104.83 -8.76 -104.72 -9.63 -104.49 -10.37C-104.26 -11.11 -103.95 -11.71 -103.56 -12.19C-103.17 -12.67 -102.72 -13.03 -102.21 -13.27C-101.7 -13.51 -101.16 -13.63 -100.58 -13.63C-100.02 -13.63 -99.48 -13.51 -98.96 -13.27C-98.44 -13.03 -97.99 -12.67 -97.6 -12.19C-97.21 -11.71 -96.9 -11.11 -96.67 -10.37C-96.44 -9.63 -96.32 -8.76 -96.32 -7.76C-96.32 -6.96 -96.41 -6.2 -96.58 -5.48C-96.75 -4.76 -97.01 -4.13 -97.36 -3.6C-97.71 -3.06 -98.15 -2.63 -98.69 -2.32C-99.23 -2.01 -99.86 -1.86 -100.58 -1.86C-101.26 -1.86 -101.86 -2 -102.39 -2.29C-102.92 -2.58 -103.36 -2.99 -103.72 -3.51C-104.08 -4.02 -104.36 -4.64 -104.55 -5.36C-104.74 -6.08 -104.83 -6.88 -104.83 -7.76Z M-79.01 0L-76.91 0C-77.09 -0.7 -77.21 -1.36 -77.28 -1.99C-77.35 -2.62 -77.39 -3.22 -77.39 -3.78L-77.39 -15.49L-80.17 -15.49L-80.17 -3.3C-80.17 -2.7 -80.1 -2.13 -79.95 -1.6C-79.8 -1.07 -79.49 -0.54 -79.01 0ZM-87.1 -4.22L-87.1 -15.49L-89.91 -15.49L-89.91 -4.52C-89.91 -3.59 -89.8 -2.81 -89.57 -2.2C-89.34 -1.59 -89.02 -1.1 -88.62 -0.72C-88.22 -0.34 -87.76 -0.07 -87.25 0.07C-86.73 0.22 -86.17 0.3 -85.57 0.3C-85.03 0.3 -84.39 0.19 -83.66 -0.01C-82.94 -0.22 -82.04 -0.65 -80.98 -1.29C-81.4 -1.73 -81.86 -2.01 -82.36 -2.13C-82.86 -2.25 -83.4 -2.24 -83.98 -2.1C-84.26 -2.04 -84.48 -1.98 -84.65 -1.93C-84.82 -1.88 -85.03 -1.86 -85.27 -1.86C-85.91 -1.86 -86.37 -2.08 -86.66 -2.52C-86.95 -2.96 -87.1 -3.53 -87.1 -4.22Z M-70.26 -15.49L-72.32 -15.49C-72.17 -14.79 -72.05 -13.97 -71.97 -13.03C-71.89 -12.09 -71.85 -11.17 -71.85 -10.25L-71.85 0L-69.18 0L-69.18 -8.27C-69.18 -9.17 -69.06 -9.94 -68.83 -10.58C-68.6 -11.22 -68.31 -11.73 -67.95 -12.13C-67.59 -12.53 -67.18 -12.83 -66.72 -13.02C-66.26 -13.21 -65.8 -13.3 -65.34 -13.3C-65.16 -13.3 -64.96 -13.29 -64.73 -13.27C-64.5 -13.25 -64.23 -13.2 -63.91 -13.12L-63.55 -15.46C-64.13 -15.62 -64.61 -15.7 -65.01 -15.7C-65.83 -15.7 -66.6 -15.45 -67.32 -14.97C-68.04 -14.48 -68.6 -13.85 -69 -13.09L-69.24 -12.55L-69.24 -13.09C-69.34 -13.57 -69.45 -14.01 -69.58 -14.4C-69.71 -14.79 -69.94 -15.15 -70.26 -15.49Z M-46.14 -12.43L-49.58 -12.43L-49.58 -19.77C-49.05 -19.83 -48.47 -19.88 -47.86 -19.91C-47.25 -19.94 -46.68 -19.95 -46.14 -19.95C-44.62 -19.95 -43.47 -19.61 -42.69 -18.94C-41.91 -18.26 -41.53 -17.41 -41.53 -16.39C-41.53 -15.83 -41.63 -15.31 -41.82 -14.83C-42.02 -14.35 -42.32 -13.93 -42.71 -13.57C-43.1 -13.21 -43.58 -12.93 -44.16 -12.73C-44.74 -12.53 -45.4 -12.43 -46.14 -12.43ZM-45.54 -1.92C-46.22 -2.04 -46.79 -1.91 -47.25 -1.53C-47.71 -1.15 -48.09 -0.7 -48.39 -0.18C-47.49 0.04 -46.71 0.18 -46.05 0.25C-45.39 0.32 -44.77 0.36 -44.19 0.36C-43.11 0.36 -42.14 0.16 -41.29 -0.22C-40.43 -0.61 -39.7 -1.12 -39.1 -1.74C-38.5 -2.36 -38.04 -3.05 -37.74 -3.82C-37.43 -4.59 -37.27 -5.36 -37.27 -6.14C-37.27 -7.34 -37.58 -8.38 -38.2 -9.27C-38.82 -10.16 -39.7 -10.88 -40.84 -11.41L-41.68 -11.62L-40.81 -12.04C-40.45 -12.28 -40.13 -12.57 -39.85 -12.91C-39.57 -13.25 -39.33 -13.62 -39.14 -14.02C-38.95 -14.42 -38.81 -14.83 -38.71 -15.23C-38.61 -15.64 -38.56 -16.03 -38.56 -16.39C-38.56 -17.19 -38.71 -17.94 -39.02 -18.65C-39.33 -19.36 -39.8 -19.97 -40.43 -20.49C-41.06 -21.01 -41.85 -21.42 -42.8 -21.72C-43.75 -22.02 -44.86 -22.17 -46.14 -22.17C-47.22 -22.17 -48.25 -22.12 -49.24 -22.01C-50.23 -21.9 -51.29 -21.73 -52.43 -21.51L-52.43 0L-49.58 0L-49.58 -10.37L-46.14 -10.37C-45.34 -10.37 -44.58 -10.28 -43.86 -10.11C-43.14 -9.94 -42.52 -9.68 -42 -9.32C-41.49 -8.96 -41.07 -8.5 -40.76 -7.95C-40.45 -7.41 -40.3 -6.76 -40.3 -6.02C-40.3 -5.44 -40.4 -4.9 -40.61 -4.39C-40.82 -3.88 -41.11 -3.44 -41.47 -3.06C-41.82 -2.68 -42.24 -2.38 -42.71 -2.16C-43.18 -1.94 -43.67 -1.83 -44.19 -1.83C-44.47 -1.83 -44.71 -1.83 -44.9 -1.84C-45.09 -1.85 -45.3 -1.88 -45.54 -1.92Z M-22.74 0L-20.64 0C-20.82 -0.7 -20.95 -1.36 -21.02 -1.99C-21.09 -2.62 -21.12 -3.22 -21.12 -3.78L-21.12 -15.49L-23.91 -15.49L-23.91 -3.3C-23.91 -2.7 -23.83 -2.13 -23.68 -1.6C-23.53 -1.07 -23.22 -0.54 -22.74 0ZM-30.83 -4.22L-30.83 -15.49L-33.65 -15.49L-33.65 -4.52C-33.65 -3.59 -33.53 -2.81 -33.3 -2.2C-33.07 -1.59 -32.76 -1.1 -32.36 -0.72C-31.96 -0.34 -31.5 -0.07 -30.98 0.07C-30.46 0.22 -29.9 0.3 -29.3 0.3C-28.76 0.3 -28.13 0.19 -27.4 -0.01C-26.67 -0.22 -25.78 -0.65 -24.72 -1.29C-25.14 -1.73 -25.6 -2.01 -26.1 -2.13C-26.59 -2.25 -27.13 -2.24 -27.71 -2.1C-27.99 -2.04 -28.22 -1.98 -28.39 -1.93C-28.56 -1.88 -28.76 -1.86 -29 -1.86C-29.64 -1.86 -30.11 -2.08 -30.39 -2.52C-30.68 -2.96 -30.83 -3.53 -30.83 -4.22Z M-16.39 -2.94L-17.11 -0.96C-15.95 -0.38 -14.94 -0.02 -14.07 0.1C-13.2 0.23 -12.38 0.3 -11.62 0.3C-10.97 0.3 -10.34 0.18 -9.74 -0.04C-9.14 -0.27 -8.6 -0.58 -8.13 -0.97C-7.66 -1.36 -7.3 -1.81 -7.03 -2.32C-6.76 -2.83 -6.62 -3.38 -6.62 -3.95C-6.62 -4.81 -6.8 -5.53 -7.16 -6.11C-7.52 -6.69 -7.97 -7.18 -8.51 -7.57C-9.05 -7.95 -9.63 -8.29 -10.25 -8.58C-10.87 -8.87 -11.44 -9.16 -11.98 -9.45C-12.52 -9.74 -12.97 -10.06 -13.33 -10.41C-13.69 -10.76 -13.87 -11.21 -13.87 -11.74C-13.87 -12.36 -13.65 -12.83 -13.2 -13.15C-12.75 -13.47 -12.17 -13.63 -11.47 -13.63C-11.06 -13.63 -10.58 -13.59 -10.05 -13.5C-9.52 -13.41 -8.94 -13.25 -8.3 -13.03L-7.61 -14.98C-8.45 -15.28 -9.21 -15.48 -9.89 -15.59C-10.57 -15.7 -11.2 -15.76 -11.77 -15.76C-12.55 -15.76 -13.24 -15.64 -13.84 -15.4C-14.44 -15.16 -14.94 -14.85 -15.34 -14.47C-15.74 -14.09 -16.04 -13.66 -16.25 -13.18C-16.46 -12.7 -16.57 -12.22 -16.57 -11.74C-16.57 -10.91 -16.39 -10.21 -16.03 -9.66C-15.67 -9.11 -15.22 -8.65 -14.68 -8.27C-14.14 -7.89 -13.56 -7.56 -12.94 -7.28C-12.32 -7 -11.74 -6.72 -11.21 -6.43C-10.67 -6.14 -10.22 -5.81 -9.86 -5.45C-9.5 -5.09 -9.32 -4.64 -9.32 -4.1C-9.32 -3.45 -9.54 -2.91 -9.98 -2.49C-10.42 -2.07 -11.09 -1.86 -11.98 -1.86C-12.62 -1.86 -13.33 -1.94 -14.1 -2.11C-14.87 -2.28 -15.63 -2.56 -16.39 -2.94Z M-3.33 0L-0.45 0L-0.45 -15.49L-3.33 -15.49ZM-3.69 -19.98C-3.69 -19.46 -3.52 -19.03 -3.18 -18.7C-2.84 -18.36 -2.41 -18.19 -1.89 -18.19C-1.37 -18.19 -0.94 -18.36 -0.6 -18.7C-0.26 -19.03 -0.09 -19.46 -0.09 -19.98C-0.09 -20.5 -0.26 -20.94 -0.6 -21.29C-0.94 -21.64 -1.37 -21.81 -1.89 -21.81C-2.41 -21.81 -2.84 -21.64 -3.18 -21.29C-3.52 -20.94 -3.69 -20.5 -3.69 -19.98Z M6.2 -15.49L4.04 -15.49C4.2 -14.79 4.32 -14.13 4.39 -13.5C4.46 -12.87 4.49 -12.27 4.49 -11.71L4.49 0L7.37 0L7.37 -12.19C7.37 -12.79 7.3 -13.36 7.15 -13.89C7 -14.42 6.68 -14.95 6.2 -15.49ZM14.32 -11.27L14.32 0L17.2 0L17.2 -10.97C17.2 -11.88 17.08 -12.65 16.84 -13.27C16.6 -13.89 16.27 -14.39 15.86 -14.77C15.45 -15.15 14.98 -15.41 14.44 -15.56C13.9 -15.71 13.33 -15.79 12.73 -15.79C12.19 -15.79 11.56 -15.68 10.85 -15.46C10.13 -15.24 9.24 -14.82 8.18 -14.2C8.6 -13.76 9.06 -13.48 9.56 -13.36C10.06 -13.24 10.6 -13.25 11.18 -13.39C11.43 -13.45 11.65 -13.51 11.83 -13.56C12.01 -13.61 12.22 -13.63 12.46 -13.63C13.08 -13.63 13.55 -13.41 13.86 -12.97C14.17 -12.53 14.32 -11.96 14.32 -11.27Z M31.7 -9.5L27.89 -9.5C27.17 -9.5 26.62 -9.31 26.25 -8.93C25.87 -8.55 25.57 -8.07 25.35 -7.49L34.04 -7.49C34.35 -8.57 34.46 -9.61 34.35 -10.61C34.24 -11.6 33.95 -12.49 33.47 -13.26C32.99 -14.03 32.35 -14.64 31.55 -15.1C30.75 -15.56 29.84 -15.79 28.82 -15.79C27.68 -15.79 26.66 -15.6 25.77 -15.23C24.87 -14.87 24.1 -14.34 23.46 -13.65C22.82 -12.96 22.33 -12.13 21.99 -11.16C21.65 -10.19 21.48 -9.1 21.48 -7.88C21.48 -6.7 21.65 -5.61 21.99 -4.61C22.33 -3.62 22.81 -2.75 23.44 -2.02C24.07 -1.29 24.84 -0.72 25.74 -0.31C26.63 0.09 27.63 0.3 28.73 0.3C29.45 0.3 30.26 0.21 31.16 0.04C32.06 -0.12 32.99 -0.46 33.95 -0.96L33.2 -2.94C32.34 -2.5 31.6 -2.21 30.99 -2.07C30.39 -1.93 29.73 -1.86 29.03 -1.86C28.35 -1.86 27.72 -2 27.14 -2.29C26.57 -2.58 26.06 -2.99 25.63 -3.52C25.2 -4.05 24.87 -4.68 24.63 -5.41C24.39 -6.14 24.27 -6.95 24.27 -7.85C24.27 -9.71 24.66 -11.14 25.45 -12.13C26.24 -13.13 27.26 -13.63 28.52 -13.63C29 -13.63 29.45 -13.53 29.87 -13.32C30.29 -13.11 30.64 -12.81 30.93 -12.43C31.22 -12.05 31.44 -11.61 31.58 -11.12C31.72 -10.62 31.76 -10.08 31.7 -9.5Z M37.9 -2.94L37.18 -0.96C38.34 -0.38 39.35 -0.02 40.22 0.1C41.09 0.23 41.9 0.3 42.66 0.3C43.32 0.3 43.95 0.18 44.55 -0.04C45.15 -0.27 45.68 -0.58 46.15 -0.97C46.62 -1.36 46.99 -1.81 47.26 -2.32C47.53 -2.83 47.67 -3.38 47.67 -3.95C47.67 -4.81 47.49 -5.53 47.13 -6.11C46.77 -6.69 46.32 -7.18 45.78 -7.57C45.24 -7.95 44.66 -8.29 44.04 -8.58C43.42 -8.87 42.84 -9.16 42.3 -9.45C41.77 -9.74 41.32 -10.06 40.96 -10.41C40.6 -10.76 40.42 -11.21 40.42 -11.74C40.42 -12.36 40.64 -12.83 41.09 -13.15C41.54 -13.47 42.11 -13.63 42.81 -13.63C43.23 -13.63 43.71 -13.59 44.24 -13.5C44.77 -13.41 45.35 -13.25 45.99 -13.03L46.68 -14.98C45.84 -15.28 45.08 -15.48 44.4 -15.59C43.72 -15.7 43.09 -15.76 42.51 -15.76C41.74 -15.76 41.05 -15.64 40.45 -15.4C39.85 -15.16 39.35 -14.85 38.95 -14.47C38.55 -14.09 38.24 -13.66 38.03 -13.18C37.83 -12.7 37.72 -12.22 37.72 -11.74C37.72 -10.91 37.9 -10.21 38.26 -9.66C38.62 -9.11 39.07 -8.65 39.61 -8.27C40.15 -7.89 40.73 -7.56 41.35 -7.28C41.96 -7 42.54 -6.72 43.08 -6.43C43.62 -6.14 44.07 -5.81 44.43 -5.45C44.79 -5.09 44.97 -4.64 44.97 -4.1C44.97 -3.45 44.75 -2.91 44.31 -2.49C43.87 -2.07 43.2 -1.86 42.3 -1.86C41.67 -1.86 40.96 -1.94 40.19 -2.11C39.42 -2.28 38.66 -2.56 37.9 -2.94Z M50.36 -2.94L49.64 -0.96C50.8 -0.38 51.82 -0.02 52.69 0.1C53.55 0.23 54.37 0.3 55.13 0.3C55.79 0.3 56.42 0.18 57.01 -0.04C57.61 -0.27 58.15 -0.58 58.62 -0.97C59.09 -1.36 59.46 -1.81 59.73 -2.32C60 -2.83 60.13 -3.38 60.13 -3.95C60.13 -4.81 59.95 -5.53 59.59 -6.11C59.23 -6.69 58.78 -7.18 58.24 -7.57C57.7 -7.95 57.12 -8.29 56.51 -8.58C55.89 -8.87 55.31 -9.16 54.77 -9.45C54.23 -9.74 53.78 -10.06 53.42 -10.41C53.06 -10.76 52.88 -11.21 52.88 -11.74C52.88 -12.36 53.11 -12.83 53.55 -13.15C54 -13.47 54.58 -13.63 55.28 -13.63C55.7 -13.63 56.17 -13.59 56.7 -13.5C57.23 -13.41 57.81 -13.25 58.45 -13.03L59.14 -14.98C58.3 -15.28 57.54 -15.48 56.87 -15.59C56.19 -15.7 55.56 -15.76 54.98 -15.76C54.2 -15.76 53.51 -15.64 52.91 -15.4C52.31 -15.16 51.81 -14.85 51.41 -14.47C51.01 -14.09 50.71 -13.66 50.5 -13.18C50.29 -12.7 50.18 -12.22 50.18 -11.74C50.18 -10.91 50.36 -10.21 50.72 -9.66C51.08 -9.11 51.53 -8.65 52.07 -8.27C52.61 -7.89 53.19 -7.56 53.81 -7.28C54.43 -7 55.01 -6.72 55.55 -6.43C56.09 -6.14 56.54 -5.81 56.9 -5.45C57.25 -5.09 57.43 -4.64 57.43 -4.1C57.43 -3.45 57.21 -2.91 56.78 -2.49C56.34 -2.07 55.67 -1.86 54.77 -1.86C54.13 -1.86 53.42 -1.94 52.66 -2.11C51.89 -2.28 51.12 -2.56 50.36 -2.94Z M71.79 -13.42L71.79 -5.72C71.79 -3.8 72.22 -2.32 73.09 -1.26C73.96 -0.2 75.21 0.33 76.85 0.33C77.33 0.33 77.78 0.28 78.2 0.19C78.62 0.1 79.21 -0.07 79.96 -0.33L79.31 -2.22C78.79 -2.06 78.35 -1.94 77.99 -1.87C77.63 -1.8 77.25 -1.77 76.85 -1.77C76.11 -1.77 75.52 -2.11 75.08 -2.8C74.64 -3.49 74.42 -4.35 74.42 -5.39L74.42 -20.28L71.79 -19.44L71.79 -15.49L69.03 -14.77L69.03 -13.42ZM78.02 -13.42L79.73 -13.42L79.73 -15.49L75.5 -15.49C75.7 -14.91 75.99 -14.42 76.38 -14.02C76.77 -13.62 77.32 -13.42 78.02 -13.42Z M82.69 -7.76C82.69 -6.46 82.88 -5.31 83.26 -4.3C83.64 -3.29 84.15 -2.45 84.8 -1.77C85.45 -1.09 86.22 -0.57 87.1 -0.22C87.97 0.12 88.91 0.3 89.91 0.3C90.87 0.3 91.79 0.12 92.67 -0.22C93.55 -0.57 94.32 -1.09 94.97 -1.77C95.63 -2.45 96.16 -3.29 96.55 -4.3C96.94 -5.31 97.13 -6.46 97.13 -7.76C97.13 -8.88 96.97 -9.93 96.65 -10.91C96.33 -11.88 95.86 -12.73 95.24 -13.45C94.63 -14.17 93.87 -14.74 92.97 -15.16C92.07 -15.58 91.05 -15.79 89.91 -15.79C89.03 -15.79 88.16 -15.63 87.29 -15.31C86.42 -14.99 85.65 -14.5 84.97 -13.84C84.29 -13.18 83.74 -12.35 83.32 -11.34C82.9 -10.33 82.69 -9.14 82.69 -7.76ZM85.66 -7.76C85.66 -8.76 85.77 -9.63 86 -10.37C86.23 -11.11 86.54 -11.71 86.93 -12.19C87.32 -12.67 87.77 -13.03 88.28 -13.27C88.79 -13.51 89.33 -13.63 89.91 -13.63C90.47 -13.63 91.01 -13.51 91.53 -13.27C92.05 -13.03 92.5 -12.67 92.89 -12.19C93.28 -11.71 93.59 -11.11 93.82 -10.37C94.05 -9.63 94.17 -8.76 94.17 -7.76C94.17 -6.96 94.08 -6.2 93.91 -5.48C93.74 -4.76 93.48 -4.13 93.13 -3.6C92.78 -3.06 92.34 -2.63 91.8 -2.32C91.26 -2.01 90.63 -1.86 89.91 -1.86C89.23 -1.86 88.63 -2 88.1 -2.29C87.57 -2.58 87.13 -2.99 86.77 -3.51C86.41 -4.02 86.13 -4.64 85.94 -5.36C85.75 -6.08 85.66 -6.88 85.66 -7.76Z M109.21 -13.42L109.21 -5.72C109.21 -3.8 109.64 -2.32 110.51 -1.26C111.38 -0.2 112.63 0.33 114.27 0.33C114.75 0.33 115.2 0.28 115.62 0.19C116.04 0.1 116.63 -0.07 117.39 -0.33L116.73 -2.22C116.21 -2.06 115.77 -1.94 115.41 -1.87C115.05 -1.8 114.67 -1.77 114.27 -1.77C113.53 -1.77 112.94 -2.11 112.5 -2.8C112.06 -3.49 111.84 -4.35 111.84 -5.39L111.84 -20.28L109.21 -19.44L109.21 -15.49L106.45 -14.77L106.45 -13.42ZM115.44 -13.42L117.15 -13.42L117.15 -15.49L112.92 -15.49C113.12 -14.91 113.42 -14.42 113.81 -14.02C114.19 -13.62 114.74 -13.42 115.44 -13.42Z M121.4 0L124.19 0L124.19 -22.71L121.4 -22.71ZM131.08 -11.27L131.08 0L133.95 0L133.95 -10.97C133.95 -11.88 133.84 -12.65 133.62 -13.27C133.4 -13.89 133.1 -14.39 132.73 -14.77C132.35 -15.15 131.9 -15.41 131.39 -15.56C130.88 -15.71 130.34 -15.79 129.76 -15.79C129.2 -15.79 128.57 -15.68 127.87 -15.46C127.17 -15.24 126.29 -14.82 125.24 -14.2C125.65 -13.76 126.1 -13.48 126.58 -13.36C127.06 -13.24 127.59 -13.25 128.17 -13.39C128.45 -13.45 128.67 -13.51 128.82 -13.56C128.97 -13.61 129.16 -13.63 129.4 -13.63C129.98 -13.63 130.4 -13.41 130.67 -12.97C130.94 -12.53 131.08 -11.96 131.08 -11.27Z M148.24 -9.5L144.44 -9.5C143.72 -9.5 143.17 -9.31 142.79 -8.93C142.41 -8.55 142.11 -8.07 141.89 -7.49L150.58 -7.49C150.9 -8.57 151.01 -9.61 150.9 -10.61C150.79 -11.6 150.49 -12.49 150.01 -13.26C149.53 -14.03 148.89 -14.64 148.1 -15.1C147.3 -15.56 146.39 -15.79 145.37 -15.79C144.23 -15.79 143.21 -15.6 142.31 -15.23C141.41 -14.87 140.64 -14.34 140.01 -13.65C139.37 -12.96 138.88 -12.13 138.54 -11.16C138.2 -10.19 138.03 -9.1 138.03 -7.88C138.03 -6.7 138.2 -5.61 138.54 -4.61C138.88 -3.62 139.36 -2.75 139.99 -2.02C140.62 -1.29 141.38 -0.72 142.28 -0.31C143.18 0.09 144.18 0.3 145.28 0.3C146 0.3 146.81 0.21 147.71 0.04C148.6 -0.12 149.53 -0.46 150.49 -0.96L149.74 -2.94C148.88 -2.5 148.15 -2.21 147.54 -2.07C146.93 -1.93 146.28 -1.86 145.58 -1.86C144.9 -1.86 144.27 -2 143.69 -2.29C143.11 -2.58 142.61 -2.99 142.18 -3.52C141.75 -4.05 141.41 -4.68 141.17 -5.41C140.93 -6.14 140.81 -6.95 140.81 -7.85C140.81 -9.71 141.21 -11.14 142 -12.13C142.79 -13.13 143.81 -13.63 145.07 -13.63C145.55 -13.63 146 -13.53 146.42 -13.32C146.84 -13.11 147.19 -12.81 147.48 -12.43C147.77 -12.05 147.99 -11.61 148.13 -11.12C148.26 -10.62 148.3 -10.08 148.24 -9.5Z M173.35 0.36C174.19 0.36 175.05 0.25 175.93 0.04C176.81 -0.16 177.72 -0.52 178.65 -1.02L177.88 -2.97C177.04 -2.55 176.25 -2.25 175.51 -2.07C174.77 -1.89 174.05 -1.8 173.35 -1.8C172.31 -1.8 171.32 -2.01 170.39 -2.44C169.45 -2.87 168.62 -3.49 167.9 -4.28C167.18 -5.08 166.61 -6.04 166.19 -7.15C165.77 -8.25 165.56 -9.49 165.56 -10.85C165.56 -12.36 165.77 -13.7 166.19 -14.85C166.61 -15.99 167.18 -16.95 167.9 -17.71C168.62 -18.47 169.45 -19.03 170.39 -19.41C171.32 -19.79 172.31 -19.98 173.35 -19.98C174.05 -19.98 174.76 -19.92 175.48 -19.8C176.2 -19.68 177 -19.48 177.88 -19.2L178.65 -21.15C177.74 -21.49 176.83 -21.75 175.94 -21.92C175.05 -22.09 174.19 -22.17 173.35 -22.17C171.81 -22.17 170.39 -21.9 169.07 -21.35C167.75 -20.8 166.6 -20.02 165.62 -19.02C164.64 -18.03 163.88 -16.83 163.33 -15.44C162.78 -14.06 162.51 -12.52 162.51 -10.85C162.51 -9.11 162.78 -7.55 163.33 -6.17C163.88 -4.79 164.64 -3.62 165.62 -2.65C166.6 -1.68 167.75 -0.94 169.07 -0.42C170.39 0.1 171.81 0.36 173.35 0.36Z M185.16 0L185.16 -22.71L182.43 -22.71L182.43 0Z M188.69 -7.76C188.69 -6.46 188.88 -5.31 189.26 -4.3C189.64 -3.29 190.15 -2.45 190.8 -1.77C191.45 -1.09 192.22 -0.57 193.1 -0.22C193.97 0.12 194.91 0.3 195.91 0.3C196.87 0.3 197.79 0.12 198.67 -0.22C199.55 -0.57 200.32 -1.09 200.98 -1.77C201.63 -2.45 202.16 -3.29 202.55 -4.3C202.94 -5.31 203.13 -6.46 203.13 -7.76C203.13 -8.88 202.97 -9.93 202.65 -10.91C202.33 -11.88 201.86 -12.73 201.25 -13.45C200.63 -14.17 199.87 -14.74 198.97 -15.16C198.07 -15.58 197.05 -15.79 195.91 -15.79C195.03 -15.79 194.16 -15.63 193.29 -15.31C192.42 -14.99 191.65 -14.5 190.97 -13.84C190.29 -13.18 189.74 -12.35 189.32 -11.34C188.9 -10.33 188.69 -9.14 188.69 -7.76ZM191.66 -7.76C191.66 -8.76 191.77 -9.63 192 -10.37C192.23 -11.11 192.54 -11.71 192.93 -12.19C193.32 -12.67 193.77 -13.03 194.28 -13.27C194.79 -13.51 195.33 -13.63 195.91 -13.63C196.47 -13.63 197.01 -13.51 197.53 -13.27C198.05 -13.03 198.5 -12.67 198.89 -12.19C199.28 -11.71 199.59 -11.11 199.82 -10.37C200.05 -9.63 200.17 -8.76 200.17 -7.76C200.17 -6.96 200.08 -6.2 199.91 -5.48C199.74 -4.76 199.48 -4.13 199.13 -3.6C198.78 -3.06 198.34 -2.63 197.8 -2.32C197.26 -2.01 196.63 -1.86 195.91 -1.86C195.23 -1.86 194.63 -2 194.1 -2.29C193.57 -2.58 193.13 -2.99 192.77 -3.51C192.41 -4.02 192.13 -4.64 191.94 -5.36C191.75 -6.08 191.66 -6.88 191.66 -7.76Z M217.48 0L219.58 0C219.4 -0.7 219.28 -1.36 219.21 -1.99C219.14 -2.62 219.1 -3.22 219.1 -3.78L219.1 -15.49L216.32 -15.49L216.32 -3.3C216.32 -2.7 216.39 -2.13 216.54 -1.6C216.69 -1.07 217 -0.54 217.48 0ZM209.39 -4.22L209.39 -15.49L206.58 -15.49L206.58 -4.52C206.58 -3.59 206.69 -2.81 206.92 -2.2C207.15 -1.59 207.47 -1.1 207.87 -0.72C208.27 -0.34 208.73 -0.07 209.24 0.07C209.76 0.22 210.32 0.3 210.92 0.3C211.46 0.3 212.1 0.19 212.82 -0.01C213.55 -0.22 214.45 -0.65 215.51 -1.29C215.09 -1.73 214.63 -2.01 214.13 -2.13C213.63 -2.25 213.09 -2.24 212.51 -2.1C212.23 -2.04 212.01 -1.98 211.84 -1.93C211.67 -1.88 211.46 -1.86 211.22 -1.86C210.58 -1.86 210.12 -2.08 209.83 -2.52C209.54 -2.96 209.39 -3.53 209.39 -4.22Z M223.57 -7.82C223.57 -6.68 223.71 -5.62 224 -4.63C224.29 -3.64 224.72 -2.78 225.29 -2.05C225.86 -1.32 226.55 -0.75 227.36 -0.33C228.16 0.09 229.1 0.3 230.16 0.3C230.78 0.3 231.49 0.16 232.28 -0.12C233.08 -0.4 233.79 -0.89 234.41 -1.59L234.65 -2.1L234.71 -1.62C234.87 -1.22 235.03 -0.9 235.18 -0.67C235.33 -0.44 235.52 -0.22 235.76 0L237.77 0C237.65 -0.52 237.54 -1.2 237.45 -2.05C237.36 -2.9 237.32 -3.92 237.32 -5.12L237.32 -22.71L234.53 -22.71L234.53 -4.04C233.33 -2.59 232.02 -1.86 230.61 -1.86C229.95 -1.86 229.36 -2.01 228.85 -2.31C228.34 -2.61 227.92 -3.02 227.58 -3.54C227.24 -4.05 226.98 -4.68 226.8 -5.41C226.62 -6.14 226.53 -6.94 226.53 -7.82C226.53 -8.84 226.65 -9.71 226.89 -10.44C227.13 -11.17 227.45 -11.76 227.84 -12.22C228.22 -12.68 228.67 -13.02 229.17 -13.23C229.67 -13.44 230.18 -13.53 230.7 -13.51C231.4 -13.49 231.97 -13.64 232.42 -13.95C232.87 -14.26 233.23 -14.66 233.51 -15.16C232.97 -15.36 232.45 -15.49 231.95 -15.56C231.46 -15.63 230.98 -15.67 230.52 -15.67C229.62 -15.67 228.75 -15.48 227.92 -15.12C227.1 -14.75 226.36 -14.22 225.71 -13.54C225.06 -12.86 224.54 -12.04 224.15 -11.07C223.76 -10.1 223.57 -9.02 223.57 -7.82Z"></path></g></g></svg>
